:FULLY-SPECIFIED
:FORCE-ALL-JOINTS-BE-3DOF
:DEGREES
3058
root -1.73004 15.9587 -34.2479 7.53701 1.30899 0.571609
lfemur -34.8748 3.68131 -3.81569
ltibia 57.8696 -0 0
lfoot -9.67675 1.5873 0.430659
ltoes -37.5449 0 0
rfemur -35.077 -5.8098 24.8519
rtibia 60.3834 -0 0
rfoot -19.3497 -27.6845 0.0302816
rtoes -8.84481 0 0
lowerback 12.4917 0.441985 -1.12181
upperback -1.33744 0.5472 1.53797
thorax -8.47495 0.358137 2.17724
lowerneck 3.16605 -8.61774 -11.2901
upperneck -2.58465 -11.791 8.93167
head -0.0232824 -5.93594 4.745
lclavicle 0 0 0
lhumerus 11.4901 -43.3152 88.0947
lradius 68.8043 -0 0
lwrist -5.4151 0 0
lhand -28.2646 32.1874 0.00304877
lfingers 0 0 0
lthumb -1.64146 62.1613 0.00294571
rclavicle 0 0 0
rhumerus 16.5556 49.4513 -54.5794
rradius 104.724 -0 0
rwrist -43.2383 0 0
rhand -5.88563 -25.6531 -0.00237186
rfingers 0 0 0
rthumb 19.9423 -54.6498 -0.0022642
3059
root -1.70453 15.9607 -34.2247 7.42574 1.94598 0.575847
lfemur -34.5388 3.56522 -3.89878
ltibia 57.2072 -0 0
lfoot -10.2193 1.17861 0.411186
ltoes -38.1336 0 0
rfemur -34.8052 -5.60726 24.5712
rtibia 60.3014 -0 0
rfoot -19.2718 -27.4844 0.0289155
rtoes -9.35512 0 0
lowerback 12.4272 0.462661 -1.06012
upperback -1.34583 0.58371 1.5275
thorax -8.44833 0.372503 2.12345
lowerneck 3.07073 -8.47915 -11.1951
upperneck -2.4545 -11.5975 8.82108
head -0.00233876 -5.83762 4.70821
lclavicle 0 0 0
lhumerus 10.0737 -43.6196 88.7139
lradius 69.079 -0 0
lwrist -5.1664 0 0
lhand -28.2563 32.3758 0.00291123
lfingers 0 0 0
lthumb -1.63343 62.3498 0.00281282
rclavicle 0 0 0
rhumerus 14.2092 49.9408 -56.0801
rradius 105.373 -0 0
rwrist -42.8458 0 0
rhand -5.89469 -25.5184 -0.00226487
rfingers 0 0 0
rthumb 19.9336 -54.516 -0.00216206
3060
root -1.68006 15.9623 -34.2014 7.31708 2.56798 0.578792
lfemur -34.2106 3.45234 -3.98057
ltibia 56.5603 -0 0
lfoot -10.7489 0.779745 0.388439
ltoes -38.7085 0 0
rfemur -34.5409 -5.40822 24.2982
rtibia 60.2213 -0 0
rfoot -19.1959 -27.289 0.0273192
rtoes -9.85341 0 0
lowerback 12.3643 0.482918 -0.999914
upperback -1.35402 0.619359 1.51728
thorax -8.42234 0.386555 2.07093
lowerneck 2.97791 -8.34367 -11.1025
upperneck -2.32787 -11.4084 8.71361
head 0.0180472 -5.7416 4.67233
lclavicle 0 0 0
lhumerus 8.67953 -43.906 89.3314
lradius 69.3473 -0 0
lwrist -4.92355 0 0
lhand -28.2481 32.5598 0.00275053
lfingers 0 0 0
lthumb -1.62558 62.5339 0.00265755
rclavicle 0 0 0
rhumerus 11.8772 50.3796 -57.5888
rradius 106.007 -0 0
rwrist -42.4626 0 0
rhand -5.90353 -25.3869 -0.00213986
rfingers 0 0 0
rthumb 19.9251 -54.3855 -0.00204273
3061
root -1.65667 15.9638 -34.1781 7.21147 3.1724 0.580524
lfemur -33.8916 3.3431 -4.06065
ltibia 55.9318 -0 0
lfoot -11.2633 0.392375 0.362805
ltoes -39.2671 0 0
rfemur -34.2851 -5.21361 24.0338
rtibia 60.1436 -0 0
rfoot -19.122 -27.0991 0.0255199
rtoes -10.3376 0 0
lowerback 12.3032 0.502666 -0.941428
upperback -1.36199 0.653999 1.50734
thorax -8.39711 0.400233 2.01991
lowerneck 2.88795 -8.21189 -11.0128
upperneck -2.20524 -11.2243 8.60966
head 0.0377954 -5.64829 4.6375
lclavicle 0 0 0
lhumerus 7.31436 -44.1738 89.9434
lradius 69.608 -0 0
lwrist -4.68757 0 0
lhand -28.2403 32.7386 0.00256938
lfingers 0 0 0
lthumb -1.61796 62.7128 0.00248252
rclavicle 0 0 0
rhumerus 9.57435 50.7677 -59.0937
rradius 106.623 -0 0
rwrist -42.0903 0 0
rhand -5.91213 -25.2592 -0.00199894
rfingers 0 0 0
rthumb 19.9168 -54.2586 -0.0019082
3062
root -1.63442 15.965 -34.1551 7.10934 3.75663 0.581137
lfemur -33.5831 3.23794 -4.13863
ltibia 55.3242 -0 0
lfoot -11.7604 0.0181766 0.334722
ltoes -39.8071 0 0
rfemur -34.0387 -5.02438 23.7792
rtibia 60.0684 -0 0
rfoot -19.0507 -26.9156 0.0235482
rtoes -10.8056 0 0
lowerback 12.2442 0.521813 -0.884916
upperback -1.3697 0.687481 1.49772
thorax -8.37273 0.413475 1.97059
lowerneck 2.80123 -8.08437 -10.9264
upperneck -2.08711 -11.0462 8.50961
head 0.056827 -5.55808 4.60387
lclavicle 0 0 0
lhumerus 5.98523 -44.4226 90.5459
lradius 69.86 -0 0
lwrist -4.45948 0 0
lhand -28.2326 32.9114 0.00237087
lfingers 0 0 0
lthumb -1.61059 62.8857 0.00229073
rclavicle 0 0 0
rhumerus 7.31634 51.1057 -60.5821
rradius 107.219 -0 0
rwrist -41.7303 0 0
rhand -5.92043 -25.1357 -0.00184451
rfingers 0 0 0
rthumb 19.9088 -54.136 -0.00176079
3063
root -1.61335 15.9661 -34.1325 7.01113 4.31808 0.580743
lfemur -33.2866 3.13727 -4.21409
ltibia 54.7403 -0 0
lfoot -12.238 -0.341187 0.304677
ltoes -40.326 0 0
rfemur -33.8028 -4.84151 23.5353
rtibia 59.9961 -0 0
rfoot -18.9821 -26.7392 0.021438
rtoes -11.2554 0 0
lowerback 12.1874 0.540268 -0.830626
upperback -1.37711 0.719655 1.48848
thorax -8.34931 0.42622 1.9232
lowerneck 2.7181 -7.96171 -10.8435
upperneck -1.97395 -10.8748 8.41388
head 0.0750636 -5.47138 4.57159
lclavicle 0 0 0
lhumerus 4.69927 -44.6522 91.1347
lradius 70.1022 -0 0
lwrist -4.24028 0 0
lhand -28.2253 33.0775 0.00215842
lfingers 0 0 0
lthumb -1.60351 63.0519 0.00208546
rclavicle 0 0 0
rhumerus 5.11897 51.3953 -62.0413
rradius 107.791 -0 0
rwrist -41.3845 0 0
rhand -5.92842 -25.017 -0.00167924
rfingers 0 0 0
rthumb 19.9012 -54.0181 -0.00160302
3064
root -1.59351 15.9669 -34.1105 6.91728 4.85416 0.579466
lfemur -33.0033 3.04151 -4.28662
ltibia 54.1829 -0 0
lfoot -12.6937 -0.684063 0.273197
ltoes -40.8215 0 0
rfemur -33.5784 -4.66598 23.3033
rtibia 59.9271 -0 0
rfoot -18.9167 -26.5708 0.0192262
rtoes -11.6849 0 0
lowerback 12.1333 0.55794 -0.778807
upperback -1.38419 0.750375 1.47965
thorax -8.32695 0.438407 1.87796
lowerneck 2.63892 -7.84447 -10.7645
upperneck -1.86624 -10.7111 8.32285
head 0.0924277 -5.38859 4.54079
lclavicle 0 0 0
lhumerus 3.46371 -44.8625 91.7058
lradius 70.3334 -0 0
lwrist -4.03098 0 0
lhand -28.2183 33.2361 0.00193575
lfingers 0 0 0
lthumb -1.59675 63.2105 0.00187031
rclavicle 0 0 0
rhumerus 2.99818 51.6387 -63.4585
rradius 108.338 -0 0
rwrist -41.0542 0 0
rhand -5.93604 -24.9037 -0.00150601
rfingers 0 0 0
rthumb 19.8938 -53.9056 -0.00143765
3065
root -1.57497 15.9676 -34.0893 6.82825 5.36226 0.577439
lfemur -32.7348 2.95109 -4.35579
ltibia 53.6545 -0 0
lfoot -13.1255 -1.00881 0.240843
ltoes -41.2911 0 0
rfemur -33.3664 -4.49877 23.084
rtibia 59.8618 -0 0
rfoot -18.8546 -26.4112 0.0169523
rtoes -12.0919 0 0
lowerback 12.082 0.574734 -0.729707
upperback -1.39091 0.77949 1.47128
thorax -8.30578 0.449975 1.83508
lowerneck 2.56404 -7.73326 -10.6899
upperneck -1.76445 -10.5557 8.23691
head 0.108842 -5.31011 4.51163
lclavicle 0 0 0
lhumerus 2.28583 -45.0538 92.2547
lradius 70.5525 -0 0
lwrist -3.83261 0 0
lhand -28.2117 33.3864 0.00170681
lfingers 0 0 0
lthumb -1.59035 63.3609 0.00164911
rclavicle 0 0 0
rhumerus 0.969759 51.8391 -64.8209
rradius 108.856 -0 0
rwrist -40.7412 0 0
rhand -5.94326 -24.7963 -0.00132791
rfingers 0 0 0
rthumb 19.8869 -53.7989 -0.00126763
3066
root -1.55777 15.9682 -34.069 6.74448 5.83979 0.57481
lfemur -32.4823 2.8664 -4.42119
ltibia 53.1579 -0 0
lfoot -13.5312 -1.31378 0.208205
ltoes -41.7325 0 0
rfemur -33.1677 -4.34088 22.8786
rtibia 59.8003 -0 0
rfoot -18.7963 -26.2612 0.0146577
rtoes -12.4745 0 0
lowerback 12.0337 0.590559 -0.683574
upperback -1.39723 0.806853 1.4634
thorax -8.28588 0.460862 1.79479
lowerneck 2.49381 -7.62865 -10.6198
upperneck -1.66904 -10.4095 8.15643
head 0.124231 -5.23634 4.48425
lclavicle 0 0 0
lhumerus 1.17295 -45.2261 92.7773
lradius 70.7585 -0 0
lwrist -3.64617 0 0
lhand -28.2054 33.5276 0.00147578
lfingers 0 0 0
lthumb -1.58433 63.5022 0.0014259
rclavicle 0 0 0
rhumerus -0.950852 51.9999 -66.1162
rradius 109.343 -0 0
rwrist -40.447 0 0
rhand -5.95005 -24.6953 -0.00114818
rfingers 0 0 0
rthumb 19.8804 -53.6987 -0.00109606
3067
root -1.54196 15.9686 -34.0498 6.66645 6.28415 0.57173
lfemur -32.2473 2.78785 -4.48238
ltibia 52.6957 -0 0
lfoot -13.9085 -1.59736 0.175896
ltoes -42.1432 0 0
rfemur -32.9834 -4.19332 22.6879
rtibia 59.7431 -0 0
rfoot -18.7421 -26.1216 0.0123853
rtoes -12.8304 0 0
lowerback 11.9889 0.605319 -0.640657
upperback -1.40311 0.832315 1.45608
thorax -8.26738 0.471004 1.7573
lowerneck 2.42859 -7.53122 -10.5548
upperneck -1.58049 -10.2733 8.08179
head 0.138518 -5.16769 4.45879
lclavicle 0 0 0
lhumerus 0.132408 -45.3801 93.2691
lradius 70.9502 -0 0
lwrist -3.47267 0 0
lhand -28.1996 33.6591 0.001247
lfingers 0 0 0
lthumb -1.57873 63.6338 0.00120484
rclavicle 0 0 0
rhumerus -2.74871 52.1254 -67.3327
rradius 109.796 -0 0
rwrist -40.1732 0 0
rhand -5.95637 -24.6014 -0.000970186
rfingers 0 0 0
rthumb 19.8743 -53.6054 -0.000926149
